{"title":"Kanchana 2 (2015) TC Rip x264 AAC 700MB - Shammu@TT","uid":11825193,"size":734120042,"categoryP":"video","categoryS":"movies","magnet":"?xt=urn:btih:3124f68b4ba6dc05caaf6f6b2ae21a6d9c0ce186&amp;dn=Kanchana+2+%282015%29+TC+Rip+x264+AAC+700MB+-+Shammu%40TT&amp;tr=udp%3A%2F%2Ftracker.openbittorrent.com%3A80&amp;tr=udp%3A%2F%2Fopen.demonii.com%3A1337&amp;tr=udp%3A%2F%2Ftracker.coppersurfer.tk%3A6969&amp;tr=udp%3A%2F%2Fexodus.desync.com%3A6969","seeders":12,"leechers":0,"uploader":"TeamXDN","files":1,"time":1429459531,"description":"Kanchana 2 (2015) TC Rip x264 AAC 700MB - Shammu@TT\n\nFormat                                   : MPEG-4\nFormat profile                           : Base Media\nCodec ID                                 : isom\nFile size                                : 700 MiB\nDuration                                 : 2h 42mn\nOverall bit rate mode                    : Variable\nOverall bit rate                         : 604 Kbps\nEncoded date                             : UTC 2015-04-19 12:03:52\nTagged date                              : UTC 2015-04-19 12:03:52\n\nVideo\nID                                       : 1\nFormat                                   : AVC\nFormat/Info                              : Advanced Video Codec\nFormat profile                           : High &lt;a class=&quot;__cf_email__&quot; href=&quot;/cdn-cgi/l/email-protection&quot; data-cfemail=&quot;4f7e7f0f037d617e&quot;&gt;[email&amp;#160;protected]&lt;/a&gt;&lt;script cf-hash='f9e31' type=&quot;text/javascript&quot;&gt;\n/* &lt;![CDATA[ */!function(){try{var t=&quot;currentScript&quot;in document?document.currentScript:function(){for(var t=document.getElementsByTagName(&quot;script&quot;),e=t.length;e--;)if(t[e].getAttribute(&quot;cf-hash&quot;))return t[e]}();if(t&amp;&amp;t.previousSibling){var e,r,n,i,c=t.previousSibling,a=c.getAttribute(&quot;data-cfemail&quot;);if(a){for(e=&quot;&quot;,r=parseInt(a.substr(0,2),16),n=2;a.length-n;n+=2)i=parseInt(a.substr(n,2),16)^r,e+=String.fromCharCode(i);e=document.createTextNode(e),c.parentNode.replaceChild(e,c)}}}catch(u){}}();/* ]]&gt; */&lt;/script&gt;\nFormat settings, CABAC                   : Yes\nFormat settings, ReFrames                : 4 frames\nCodec ID                                 : avc1\nCodec ID/Info                            : Advanced Video Coding\nDuration                                 : 2h 42mn\nBit rate                                 : 534 Kbps\nMaximum bit rate                         : 1 940 Kbps\nWidth                                    : 608 pixels\nHeight                                   : 256 pixels\nDisplay aspect ratio                     : 2.40:1\nFrame rate mode                          : Constant\nFrame rate                               : 23.976 fps\nColor space                              : YUV\nChroma subsampling                       : 4:2:0\nBit depth                                : 10 bits\nScan type                                : Progressive\nBits/(Pixel*Frame)                       : 0.143\nStream size                              : 619 MiB (88%)\nWriting library                          : x264 core 146 r2538 121396c\nEncoding settings                        : cabac=1 / ref=3 / deblock=1:0:0 \nEncoded date                             : UTC 2015-04-19 10:49:42\nTagged date                              : UTC 2015-04-19 12:05:24\n\nAudio\nID                                       : 2\nFormat                                   : AAC\nFormat/Info                              : Advanced Audio Codec\nFormat profile                           : HE-AAC / LC\nCodec ID                                 : 40\nDuration                                 : 2h 42mn\nBit rate mode                            : Variable\nBit rate                                 : 66.2 Kbps\nMaximum bit rate                         : 73.7 Kbps\nChannel(s)                               : 2 channels\nChannel positions                        : Front: L R\nSampling rate                            : 24.0 KHz / 12.0 KHz\nCompression mode                         : Lossy\nStream size                              : 77.7 MiB (11%)\nEncoded date                             : UTC 2015-04-19 10:53:14\nTagged date                              : UTC 2015-04-19 12:05:24","torrent":{"xt":"urn:btih:3124f68b4ba6dc05caaf6f6b2ae21a6d9c0ce186","amp;dn":"Kanchana+2+%282015%29+TC+Rip+x264+AAC+700MB+-+Shammu%40TT","amp;tr":["udp%3A%2F%2Ftracker.openbittorrent.com%3A80","udp%3A%2F%2Fopen.demonii.com%3A1337","udp%3A%2F%2Ftracker.coppersurfer.tk%3A6969","udp%3A%2F%2Fexodus.desync.com%3A6969"],"infoHash":"3124f68b4ba6dc05caaf6f6b2ae21a6d9c0ce186","infoHashBuffer":{"type":"Buffer","data":[49,36,246,139,75,166,220,5,202,175,111,107,42,226,26,109,156,12,225,134]},"announce":[],"urlList":[]}}